{"title":"Dead.Man.Down.2013.DVDRip.XVID.AC3.HQ.Hive-CM8","uid":8559352,"size":1855127780,"categoryP":"video","categoryS":"movies","magnet":"?xt=urn:btih:9107b4bcbdf5cb6f44c19a1851c0560297047d20&amp;dn=Dead.Man.Down.2013.DVDRip.XVID.AC3.HQ.Hive-CM8&amp;tr=udp%3A%2F%2Ftracker.openbittorrent.com%3A80&amp;tr=udp%3A%2F%2Fopen.demonii.com%3A1337&amp;tr=udp%3A%2F%2Ftracker.coppersurfer.tk%3A6969&amp;tr=udp%3A%2F%2Fexodus.desync.com%3A6969","seeders":5,"leechers":3,"uploader":"xxxlavalxxx","files":5,"time":1370845176,"description":" &lt;a href=&quot;\nhttp://www.imdb.com/title/tt2101341/&quot; rel=&quot;nofollow&quot; target=&quot;_NEW&quot;&gt;\nhttp://www.imdb.com/title/tt2101341/&lt;/a&gt;\n\n\n\nIn New York City, a crime lord's right-hand man is seduced by a woman seeking retribution. \n\n\n\nDirector:\n Niels Arden Oplev \n\nWriter:\n J.H. Wyman \n\nStars:\n Colin Farrell, Noomi Rapace, Terrence Howard \n\nGenres:\n  Action |  Crime |  Drama |  Thriller \n\nCountry:\n USA \n\n\nDead.Man.Down.2013.DVDRip.XVID.AC3.HQ.Hive-CM8\n\n\n Source: DVD-R\n\n Video.: 720x304 @bitrate 1700 2pass\n Audio.: English AC3 5.1 @384\n Subs..: Yes, English in srt/subs\n Sample: Yes, included\n\n\n IMDb..: http://www.imdb.com/title/tt2101341/\n\n\n ENCODE\n found the dvd finally, didnt have the highest bitrate, was interlaced and\n a little bit dark, but fixable. wasnt easy to make a perfect version, tried\n 7 videos before this one. with the interlace and brightening up there wasnt\n much space for sharpness, some daylight scenes couldnt take the brightening\n but i found a nice way through it. removed interlace, added a lot of\n brightness to standard levels and added sharpness and denoise.\n got very nice\n enjoy\n\n\n General\n Complete name                  : Dead.Man.Down.2013.DVDRip.XVID.AC3.HQ.Hive-CM8.avi\n Format                         : AVI\n Format/Info                    : Audio Video Interleave\n File size                      : 1.72 GiB\n Duration                       : 1h 57mn\n Overall bit rate               : 2 093 Kbps\n Writing application            : Nandub v1.0rc2\n Writing library                : Nandub build 1853/release\n\n Video\n ID                             : 0\n Format                         : MPEG-4 Visual\n Format profile                 : Advanced Simple@L5\n Format settings, BVOP          : 2\n Format settings, QPel          : Yes\n Format settings, GMC           : No warppoints\n Format settings, Matrix        : Default (H.263)\n Muxing mode                    : Packed bitstream\n Codec ID                       : XVID\n Codec ID/Hint                  : XviD\n Duration                       : 1h 57mn\n Bit rate                       : 1 700 Kbps\n Width                          : 720 pixels\n Height                         : 304 pixels\n Display aspect ratio           : 2.35:1\n Frame rate                     : 23.976 fps\n Color space                    : YUV\n Chroma subsampling             : 4:2:0\n Bit depth                      : 8 bits\n Scan type                      : Progressive\n Compression mode               : Lossy\n Bits/(Pixel*Frame)             : 0.324\n Stream size                    : 1.39 GiB (81%)\n Writing library                : XviD 1.2.1 (UTC 2008-12-04)\n\n Audio\n ID                             : 1\n Format                         : AC-3\n Format/Info                    : Audio Coding 3\n Mode extension                 : CM (complete main)\n Format settings, Endianness    : Big\n Codec ID                       : 2000\n Duration                       : 1h 57mn\n Bit rate mode                  : Constant\n Bit rate                       : 384 Kbps\n Channel(s)                     : 6 channels\n Channel positions              : Front: L C R, Side: L R, LFE\n Sampling rate                  : 48.0 KHz\n Bit depth                      : 16 bits\n Compression mode               : Lossy\n Stream size                    : 323 MiB (18%)\n Alignment                      : Split accross interleaves\n Interleave, duration           : 42 ms (1.00 video frame)\n Interleave, preload duration   : 500 ms\n\n\n\nscreens\n\n\n\n    &lt;a href=&quot;\thttp://addpix.net/viewer.php?file=35680786535795508653.jpg&quot; rel=&quot;nofollow&quot; target=&quot;_NEW&quot;&gt;\thttp://addpix.net/viewer.php?file=35680786535795508653.jpg&lt;/a&gt;\n    &lt;a href=&quot;\thttp://addpix.net/viewer.php?file=83459418132922290984.jpg&quot; rel=&quot;nofollow&quot; target=&quot;_NEW&quot;&gt;\thttp://addpix.net/viewer.php?file=83459418132922290984.jpg&lt;/a&gt;\n    &lt;a href=&quot;\thttp://addpix.net/viewer.php?file=32893236807007700953.jpg&quot; rel=&quot;nofollow&quot; target=&quot;_NEW&quot;&gt;\thttp://addpix.net/viewer.php?file=32893236807007700953.jpg&lt;/a&gt;\n    &lt;a href=&quot;\thttp://addpix.net/viewer.php?file=59910357788392134027.jpg&quot; rel=&quot;nofollow&quot; target=&quot;_NEW&quot;&gt;\thttp://addpix.net/viewer.php?file=59910357788392134027.jpg&lt;/a&gt;","torrent":{"xt":"urn:btih:9107b4bcbdf5cb6f44c19a1851c0560297047d20","amp;dn":"Dead.Man.Down.2013.DVDRip.XVID.AC3.HQ.Hive-CM8","amp;tr":["udp%3A%2F%2Ftracker.openbittorrent.com%3A80","udp%3A%2F%2Fopen.demonii.com%3A1337","udp%3A%2F%2Ftracker.coppersurfer.tk%3A6969","udp%3A%2F%2Fexodus.desync.com%3A6969"],"infoHash":"9107b4bcbdf5cb6f44c19a1851c0560297047d20","infoHashBuffer":{"type":"Buffer","data":[145,7,180,188,189,245,203,111,68,193,154,24,81,192,86,2,151,4,125,32]},"announce":[],"urlList":[]}}